<svg width="144" height="36" viewBox="0 0 144 36" fill="none" xmlns="http://www.w3.org/2000/svg">
<path d="M52.3125 19.5625L54.5703 11.625H55.6641L55.0312 14.7109L52.6016 23H51.5156L52.3125 19.5625ZM49.9766 11.625L51.7734 19.4062L52.3125 23H51.2344L48.4766 11.625H49.9766ZM58.5859 19.3984L60.3438 11.625H61.8516L59.1016 23H58.0234L58.5859 19.3984ZM55.8281 11.625L58.0234 19.5625L58.8203 23H57.7344L55.3906 14.7109L54.75 11.625H55.8281ZM68.0234 21.5547V17.2031C68.0234 16.8698 67.9557 16.5807 67.8203 16.3359C67.6901 16.0859 67.4922 15.8932 67.2266 15.7578C66.9609 15.6224 66.6328 15.5547 66.2422 15.5547C65.8776 15.5547 65.5573 15.6172 65.2812 15.7422C65.0104 15.8672 64.7969 16.0312 64.6406 16.2344C64.4896 16.4375 64.4141 16.6562 64.4141 16.8906H62.9688C62.9688 16.5885 63.0469 16.2891 63.2031 15.9922C63.3594 15.6953 63.5833 15.4271 63.875 15.1875C64.1719 14.9427 64.526 14.75 64.9375 14.6094C65.3542 14.4635 65.8177 14.3906 66.3281 14.3906C66.9427 14.3906 67.4844 14.4948 67.9531 14.7031C68.4271 14.9115 68.7969 15.2266 69.0625 15.6484C69.3333 16.0651 69.4688 16.5885 69.4688 17.2188V21.1562C69.4688 21.4375 69.4922 21.737 69.5391 22.0547C69.5911 22.3724 69.6667 22.6458 69.7656 22.875V23H68.2578C68.1849 22.8333 68.1276 22.612 68.0859 22.3359C68.0443 22.0547 68.0234 21.7943 68.0234 21.5547ZM68.2734 17.875L68.2891 18.8906H66.8281C66.4167 18.8906 66.0495 18.9245 65.7266 18.9922C65.4036 19.0547 65.1328 19.151 64.9141 19.2812C64.6953 19.4115 64.5286 19.5755 64.4141 19.7734C64.2995 19.9661 64.2422 20.1927 64.2422 20.4531C64.2422 20.7188 64.3021 20.9609 64.4219 21.1797C64.5417 21.3984 64.7214 21.5729 64.9609 21.7031C65.2057 21.8281 65.5052 21.8906 65.8594 21.8906C66.3021 21.8906 66.6927 21.7969 67.0312 21.6094C67.3698 21.4219 67.638 21.1927 67.8359 20.9219C68.0391 20.651 68.1484 20.388 68.1641 20.1328L68.7812 20.8281C68.7448 21.0469 68.6458 21.2891 68.4844 21.5547C68.3229 21.8203 68.1068 22.0755 67.8359 22.3203C67.5703 22.5599 67.2526 22.7604 66.8828 22.9219C66.5182 23.0781 66.1068 23.1562 65.6484 23.1562C65.0755 23.1562 64.5729 23.0443 64.1406 22.8203C63.7135 22.5964 63.3802 22.2969 63.1406 21.9219C62.9062 21.5417 62.7891 21.1172 62.7891 20.6484C62.7891 20.1953 62.8776 19.7969 63.0547 19.4531C63.2318 19.1042 63.487 18.8151 63.8203 18.5859C64.1536 18.3516 64.5547 18.1745 65.0234 18.0547C65.4922 17.9349 66.0156 17.875 66.5938 17.875H68.2734ZM75.2812 14.5469V15.6562H70.7109V14.5469H75.2812ZM72.2578 12.4922H73.7031V20.9062C73.7031 21.1927 73.7474 21.4089 73.8359 21.5547C73.9245 21.7005 74.0391 21.7969 74.1797 21.8438C74.3203 21.8906 74.4714 21.9141 74.6328 21.9141C74.7526 21.9141 74.8776 21.9036 75.0078 21.8828C75.1432 21.8568 75.2448 21.8359 75.3125 21.8203L75.3203 23C75.2057 23.0365 75.0547 23.0703 74.8672 23.1016C74.6849 23.138 74.4635 23.1562 74.2031 23.1562C73.849 23.1562 73.5234 23.0859 73.2266 22.9453C72.9297 22.8047 72.6927 22.5703 72.5156 22.2422C72.3438 21.9089 72.2578 21.4609 72.2578 20.8984V12.4922ZM80.3594 21.9688C80.7031 21.9688 81.0208 21.8984 81.3125 21.7578C81.6042 21.6172 81.8438 21.4245 82.0312 21.1797C82.2188 20.9297 82.3255 20.6458 82.3516 20.3281H83.7266C83.7005 20.8281 83.5312 21.2943 83.2188 21.7266C82.9115 22.1536 82.5078 22.5 82.0078 22.7656C81.5078 23.026 80.9583 23.1562 80.3594 23.1562C79.724 23.1562 79.1693 23.0443 78.6953 22.8203C78.2266 22.5964 77.8359 22.2891 77.5234 21.8984C77.2161 21.5078 76.9844 21.0599 76.8281 20.5547C76.6771 20.0443 76.6016 19.5052 76.6016 18.9375V18.6094C76.6016 18.0417 76.6771 17.5052 76.8281 17C76.9844 16.4896 77.2161 16.0391 77.5234 15.6484C77.8359 15.2578 78.2266 14.9505 78.6953 14.7266C79.1693 14.5026 79.724 14.3906 80.3594 14.3906C81.0208 14.3906 81.599 14.526 82.0938 14.7969C82.5885 15.0625 82.9766 15.4271 83.2578 15.8906C83.5443 16.349 83.7005 16.8698 83.7266 17.4531H82.3516C82.3255 17.1042 82.2266 16.7891 82.0547 16.5078C81.888 16.2266 81.6589 16.0026 81.3672 15.8359C81.0807 15.6641 80.7448 15.5781 80.3594 15.5781C79.9167 15.5781 79.5443 15.6667 79.2422 15.8438C78.9453 16.0156 78.7083 16.25 78.5312 16.5469C78.3594 16.8385 78.2344 17.1641 78.1562 17.5234C78.0833 17.8776 78.0469 18.2396 78.0469 18.6094V18.9375C78.0469 19.3073 78.0833 19.6719 78.1562 20.0312C78.2292 20.3906 78.3516 20.7161 78.5234 21.0078C78.7005 21.2995 78.9375 21.5339 79.2344 21.7109C79.5365 21.8828 79.9115 21.9688 80.3594 21.9688ZM86.7969 11V23H85.3516V11H86.7969ZM86.4531 18.4531L85.8516 18.4297C85.8568 17.8516 85.9427 17.3177 86.1094 16.8281C86.276 16.3333 86.5104 15.9036 86.8125 15.5391C87.1146 15.1745 87.474 14.8932 87.8906 14.6953C88.3125 14.4922 88.7786 14.3906 89.2891 14.3906C89.7057 14.3906 90.0807 14.4479 90.4141 14.5625C90.7474 14.6719 91.0312 14.849 91.2656 15.0938C91.5052 15.3385 91.6875 15.6562 91.8125 16.0469C91.9375 16.4323 92 16.9036 92 17.4609V23H90.5469V17.4453C90.5469 17.0026 90.4818 16.6484 90.3516 16.3828C90.2214 16.112 90.0312 15.9167 89.7812 15.7969C89.5312 15.6719 89.224 15.6094 88.8594 15.6094C88.5 15.6094 88.1719 15.6849 87.875 15.8359C87.5833 15.987 87.3307 16.1953 87.1172 16.4609C86.9089 16.7266 86.7448 17.0312 86.625 17.375C86.5104 17.7135 86.4531 18.0729 86.4531 18.4531ZM107.102 11.625V23H105.586L99.8594 14.2266V23H98.3516V11.625H99.8594L105.609 20.4219V11.625H107.102ZM109.172 18.8672V18.6875C109.172 18.0781 109.26 17.513 109.438 16.9922C109.615 16.4661 109.87 16.0104 110.203 15.625C110.536 15.2344 110.94 14.9323 111.414 14.7188C111.888 14.5 112.419 14.3906 113.008 14.3906C113.602 14.3906 114.135 14.5 114.609 14.7188C115.089 14.9323 115.495 15.2344 115.828 15.625C116.167 16.0104 116.424 16.4661 116.602 16.9922C116.779 17.513 116.867 18.0781 116.867 18.6875V18.8672C116.867 19.4766 116.779 20.0417 116.602 20.5625C116.424 21.0833 116.167 21.5391 115.828 21.9297C115.495 22.3151 115.091 22.6172 114.617 22.8359C114.148 23.0495 113.617 23.1562 113.023 23.1562C112.43 23.1562 111.896 23.0495 111.422 22.8359C110.948 22.6172 110.542 22.3151 110.203 21.9297C109.87 21.5391 109.615 21.0833 109.438 20.5625C109.26 20.0417 109.172 19.4766 109.172 18.8672ZM110.617 18.6875V18.8672C110.617 19.2891 110.667 19.6875 110.766 20.0625C110.865 20.4323 111.013 20.7604 111.211 21.0469C111.414 21.3333 111.667 21.5599 111.969 21.7266C112.271 21.888 112.622 21.9688 113.023 21.9688C113.419 21.9688 113.766 21.888 114.062 21.7266C114.365 21.5599 114.615 21.3333 114.812 21.0469C115.01 20.7604 115.159 20.4323 115.258 20.0625C115.362 19.6875 115.414 19.2891 115.414 18.8672V18.6875C115.414 18.2708 115.362 17.8776 115.258 17.5078C115.159 17.1328 115.008 16.8021 114.805 16.5156C114.607 16.224 114.357 15.9948 114.055 15.8281C113.758 15.6615 113.409 15.5781 113.008 15.5781C112.612 15.5781 112.263 15.6615 111.961 15.8281C111.664 15.9948 111.414 16.224 111.211 16.5156C111.013 16.8021 110.865 17.1328 110.766 17.5078C110.667 17.8776 110.617 18.2708 110.617 18.6875ZM120.82 21.5L122.992 14.5469H123.945L123.758 15.9297L121.547 23H120.617L120.82 21.5ZM119.359 14.5469L121.211 21.5781L121.344 23H120.367L117.914 14.5469H119.359ZM126.023 21.5234L127.789 14.5469H129.227L126.773 23H125.805L126.023 21.5234ZM124.156 14.5469L126.281 21.3828L126.523 23H125.602L123.328 15.9141L123.141 14.5469H124.156Z" fill="#8A53FF"/>
<circle cx="18" cy="18" r="18" fill="#8A53FF"/>
<path d="M24.4142 16.4267C25.7475 17.1965 25.7475 19.121 24.4142 19.8908L15.8164 24.8547C14.4831 25.6245 12.8164 24.6623 12.8164 23.1227L12.8164 13.1949C12.8164 11.6553 14.4831 10.693 15.8164 11.4628L24.4142 16.4267Z" fill="white"/>
</svg>
